<svg width="1024" height="1024" viewBox="0 0 1024 1024" fill="none" xmlns="http://www.w3.org/2000/svg">
<path d="M423.973 943.812C345.522 943.812 288.882 924.281 254.051 885.219C219.546 846.156 202.293 783.982 202.293 698.695V614.711H372.215V722.133C372.215 741.99 375.145 757.615 381.004 769.008C387.189 780.076 397.768 785.609 412.742 785.609C428.367 785.609 439.109 781.052 444.969 771.938C451.154 762.823 454.246 747.849 454.246 727.016C454.246 700.648 451.642 678.676 446.434 661.098C441.225 643.194 432.111 626.267 419.09 610.316C406.395 594.04 388.654 575.16 365.867 553.676L288.719 480.434C231.102 426.072 202.293 363.897 202.293 293.91C202.293 220.668 219.22 164.841 253.074 126.43C287.254 88.0182 336.57 68.8125 401.023 68.8125C479.799 68.8125 535.626 89.8086 568.504 131.801C601.707 173.793 618.309 237.595 618.309 323.207H443.504V264.125C443.504 252.406 440.086 243.292 433.25 236.781C426.74 230.271 417.788 227.016 406.395 227.016C392.723 227.016 382.632 230.922 376.121 238.734C369.936 246.221 366.844 255.987 366.844 268.031C366.844 280.076 370.099 293.096 376.609 307.094C383.12 321.091 395.978 337.204 415.184 355.434L514.305 450.648C534.161 469.529 552.391 489.548 568.992 510.707C585.594 531.54 598.94 555.954 609.031 583.949C619.122 611.618 624.168 645.473 624.168 685.512C624.168 766.241 609.194 829.555 579.246 875.453C549.624 921.026 497.866 943.812 423.973 943.812Z" fill="black"/>
<path d="M640.555 935.512V790.004H815.359V935.512H640.555Z" fill="#FF0000"/>
</svg>
