<svg width="4789" height="1123" viewBox="0 0 4789 1123" fill="none" xmlns="http://www.w3.org/2000/svg">
<path d="M242.188 992.812C163.737 992.812 107.096 973.281 72.2656 934.219C37.7604 895.156 20.5078 832.982 20.5078 747.695V663.711H190.43V771.133C190.43 790.99 193.359 806.615 199.219 818.008C205.404 829.076 215.983 834.609 230.957 834.609C246.582 834.609 257.324 830.052 263.184 820.938C269.368 811.823 272.461 796.849 272.461 776.016C272.461 749.648 269.857 727.676 264.648 710.098C259.44 692.194 250.326 675.267 237.305 659.316C224.609 643.04 206.868 624.16 184.082 602.676L106.934 529.434C49.3164 475.072 20.5078 412.897 20.5078 342.91C20.5078 269.668 37.4349 213.841 71.2891 175.43C105.469 137.018 154.785 117.812 219.238 117.812C298.014 117.812 353.841 138.809 386.719 180.801C419.922 222.793 436.523 286.595 436.523 372.207H261.719V313.125C261.719 301.406 258.301 292.292 251.465 285.781C244.954 279.271 236.003 276.016 224.609 276.016C210.938 276.016 200.846 279.922 194.336 287.734C188.151 295.221 185.059 304.987 185.059 317.031C185.059 329.076 188.314 342.096 194.824 356.094C201.335 370.091 214.193 386.204 233.398 404.434L332.52 499.648C352.376 518.529 370.605 538.548 387.207 559.707C403.809 580.54 417.155 604.954 427.246 632.949C437.337 660.618 442.383 694.473 442.383 734.512C442.383 815.241 427.409 878.555 397.461 924.453C367.839 970.026 316.081 992.812 242.188 992.812ZM466.094 207.656V62.1484H640.898V207.656H466.094ZM466.094 985V252.578H640.898V985H466.094ZM680.234 985V252.578H851.133V337.539C858.945 307.591 872.292 284.642 891.172 268.691C910.052 252.741 937.721 244.766 974.18 244.766C1003.48 244.766 1028.38 251.602 1048.89 265.273C1069.72 278.62 1084.37 296.361 1092.83 318.496C1106.18 294.408 1121.8 276.178 1139.71 263.809C1157.94 251.113 1183.82 244.766 1217.34 244.766C1258.03 244.766 1289.28 253.555 1311.09 271.133C1333.23 288.385 1348.53 312.474 1356.99 343.398C1365.78 373.997 1370.18 409.479 1370.18 449.844V985H1195.86V446.914C1195.86 399.714 1183.82 376.113 1159.73 376.113C1147.03 376.113 1137.27 380.508 1130.43 389.297C1123.59 397.76 1118.87 408.34 1116.27 421.035C1113.67 433.73 1112.36 446.426 1112.36 459.121V985H938.047V446.914C938.047 431.615 936.094 416.315 932.188 401.016C928.607 385.716 919.167 378.066 903.867 378.066C890.846 378.066 880.755 382.786 873.594 392.227C866.432 401.667 861.549 413.385 858.945 427.383C856.341 441.055 855.039 454.564 855.039 467.91V985H680.234ZM1409.02 1107.07V252.578H1586.76V330.703C1597.5 303.685 1612.31 282.689 1631.19 267.715C1650.4 252.415 1677.74 244.766 1713.22 244.766C1761.07 244.766 1794.77 262.181 1814.3 297.012C1834.15 331.842 1844.08 377.415 1844.08 433.73V794.082C1844.08 831.517 1838.71 865.371 1827.97 895.645C1817.55 925.592 1800.95 949.355 1778.16 966.934C1755.7 984.186 1726.24 992.812 1689.79 992.812C1642.26 992.812 1607.92 964.167 1586.76 906.875V1107.07H1409.02ZM1628.26 856.582C1646.49 856.582 1657.4 847.467 1660.98 829.238C1664.88 811.009 1666.84 788.548 1666.84 761.855V475.723C1666.84 448.704 1664.88 426.243 1660.98 408.34C1657.4 390.111 1646.49 380.996 1628.26 380.996C1609.38 380.996 1597.66 390.273 1593.11 408.828C1588.87 427.057 1586.76 449.355 1586.76 475.723V761.855C1586.76 788.223 1588.87 810.684 1593.11 829.238C1597.66 847.467 1609.38 856.582 1628.26 856.582ZM1880.98 985V125.625H2058.71V985H1880.98ZM2098.05 207.656V62.1484H2272.85V207.656H2098.05ZM2098.05 985V252.578H2272.85V985H2098.05ZM2519.22 992.812C2440.77 992.812 2384.13 973.281 2349.3 934.219C2314.79 895.156 2297.54 832.982 2297.54 747.695V663.711H2467.46V771.133C2467.46 790.99 2470.39 806.615 2476.25 818.008C2482.43 829.076 2493.01 834.609 2507.99 834.609C2523.61 834.609 2534.36 830.052 2540.21 820.938C2546.4 811.823 2549.49 796.849 2549.49 776.016C2549.49 749.648 2546.89 727.676 2541.68 710.098C2536.47 692.194 2527.36 675.267 2514.34 659.316C2501.64 643.04 2483.9 624.16 2461.11 602.676L2383.96 529.434C2326.35 475.072 2297.54 412.897 2297.54 342.91C2297.54 269.668 2314.47 213.841 2348.32 175.43C2382.5 137.018 2431.82 117.812 2496.27 117.812C2575.05 117.812 2630.87 138.809 2663.75 180.801C2696.95 222.793 2713.55 286.595 2713.55 372.207H2538.75V313.125C2538.75 301.406 2535.33 292.292 2528.5 285.781C2521.99 279.271 2513.03 276.016 2501.64 276.016C2487.97 276.016 2477.88 279.922 2471.37 287.734C2465.18 295.221 2462.09 304.987 2462.09 317.031C2462.09 329.076 2465.35 342.096 2471.86 356.094C2478.37 370.091 2491.22 386.204 2510.43 404.434L2609.55 499.648C2629.41 518.529 2647.64 538.548 2664.24 559.707C2680.84 580.54 2694.19 604.954 2704.28 632.949C2714.37 660.618 2719.41 694.473 2719.41 734.512C2719.41 815.241 2704.44 878.555 2674.49 924.453C2644.87 970.026 2593.11 992.812 2519.22 992.812ZM2956.99 992.812C2811.16 992.812 2738.24 917.129 2738.24 765.762V471.816C2738.24 402.806 2757.61 347.793 2796.35 306.777C2835.08 265.436 2888.63 244.766 2956.99 244.766C3025.68 244.766 3079.39 265.436 3118.12 306.777C3156.86 347.793 3176.23 402.806 3176.23 471.816V765.762C3176.23 917.129 3103.15 992.812 2956.99 992.812ZM2956.99 858.047C2971.64 858.047 2982.06 852.839 2988.24 842.422C2994.75 831.68 2998.01 818.171 2998.01 801.895V443.984C2998.01 401.341 2984.34 380.02 2956.99 380.02C2929.65 380.02 2915.98 401.341 2915.98 443.984V801.895C2915.98 818.171 2919.07 831.68 2925.25 842.422C2931.76 852.839 2942.34 858.047 2956.99 858.047ZM3431.39 992.812C3349.36 992.812 3291.09 971.816 3256.58 929.824C3222.4 887.832 3205.31 826.146 3205.31 744.766V519.18C3205.31 457.982 3211.82 407.038 3224.84 366.348C3237.86 325.658 3260.65 295.221 3293.2 275.039C3325.76 254.857 3371 244.766 3428.95 244.766C3469.31 244.766 3505.44 251.927 3537.34 266.25C3569.57 280.573 3594.96 301.569 3613.52 329.238C3632.07 356.908 3641.35 390.762 3641.35 430.801V542.617H3463.12V440.078C3463.12 423.151 3460.68 408.991 3455.8 397.598C3450.92 385.879 3440.34 380.02 3424.06 380.02C3395.42 380.02 3381.09 400.365 3381.09 441.055V796.035C3381.09 811.009 3384.35 824.844 3390.86 837.539C3397.37 849.909 3408.11 856.094 3423.09 856.094C3438.39 856.094 3448.96 850.072 3454.82 838.027C3461.01 825.658 3464.1 811.335 3464.1 795.059V672.012H3641.35V799.941C3641.35 840.306 3632.23 874.974 3614 903.945C3596.1 932.591 3571.36 954.564 3539.79 969.863C3508.21 985.163 3472.08 992.812 3431.39 992.812ZM3671.41 207.656V62.1484H3846.21V207.656H3671.41ZM3671.41 985V252.578H3846.21V985H3671.41ZM4018.85 992.812C3978.16 992.812 3947.07 983.372 3925.59 964.492C3904.43 945.612 3889.94 919.733 3882.13 886.855C3874.32 853.978 3870.41 816.706 3870.41 775.039C3870.41 730.443 3874.8 693.984 3883.59 665.664C3892.38 637.018 3907.36 613.581 3928.52 595.352C3950 577.122 3979.46 561.66 4016.89 548.965L4125.29 511.855V436.66C4125.29 397.272 4112.43 377.578 4086.72 377.578C4063.28 377.578 4051.56 393.529 4051.56 425.43V469.375H3881.64C3881.32 466.771 3881.15 463.516 3881.15 459.609C3881.15 455.378 3881.15 450.658 3881.15 445.449C3881.15 372.533 3898.24 320.938 3932.42 290.664C3966.93 260.065 4021.45 244.766 4096 244.766C4135.06 244.766 4170.05 251.764 4200.98 265.762C4231.9 279.434 4256.32 299.779 4274.22 326.797C4292.45 353.815 4301.56 387.181 4301.56 426.895V985H4127.73V898.086C4119.27 928.685 4105.27 952.122 4085.74 968.398C4066.21 984.674 4043.91 992.812 4018.85 992.812ZM4087.7 857.07C4102.02 857.07 4111.78 851.048 4116.99 839.004C4122.2 826.96 4124.8 813.939 4124.8 799.941V595.84C4100.72 605.605 4082 617.975 4068.65 632.949C4055.31 647.598 4048.63 669.245 4048.63 697.891V792.129C4048.63 835.423 4061.65 857.07 4087.7 857.07ZM4338.95 985V125.625H4516.68V985H4338.95Z" fill="black"/>
<path d="M4583.07 984.512V839.004H4757.87V984.512H4583.07Z" fill="#FF0000"/>
</svg>
